<?xml version="1.0" encoding="iso-8859-1"?>
<!-- Generator: Adobe Illustrator 18.0.0, SVG Export Plug-In . SVG Version: 6.00 Build 0)  -->
<!DOCTYPE svg PUBLIC "-//W3C//DTD SVG 1.1//EN" "http://www.w3.org/Graphics/SVG/1.1/DTD/svg11.dtd">
<svg xmlns="http://www.w3.org/2000/svg" xmlns:xlink="http://www.w3.org/1999/xlink" version="1.1" id="Capa_1" x="0px" y="0px" viewBox="0 0 493.406 493.406" style="enable-background:new 0 0 493.406 493.406;" xml:space="preserve" width="512px" height="512px">
<g>
	<path d="M258.135,99.723c27.493,0,49.861-22.368,49.861-49.861S285.628,0,258.135,0c-27.493,0-49.86,22.368-49.86,49.861   S230.642,99.723,258.135,99.723z M258.135,8.5c22.807,0,41.361,18.555,41.361,41.361s-18.555,41.361-41.361,41.361   c-22.807,0-41.36-18.555-41.36-41.361S235.328,8.5,258.135,8.5z" fill="#000000"/>
	<path d="M89.289,107.617c-3.63,0-6.583,2.953-6.583,6.584c0,3.631,2.953,6.584,6.583,6.584c3.631,0,6.584-2.953,6.584-6.584   C95.873,110.57,92.92,107.617,89.289,107.617z M89.289,116.117c-1.057,0-1.916-0.859-1.916-1.916c0-1.057,0.859-1.916,1.916-1.916   c1.057,0,1.917,0.859,1.917,1.916C91.206,115.258,90.346,116.117,89.289,116.117z" fill="#000000"/>
	<path d="M108.539,136.867c0-3.629-2.953-6.582-6.583-6.582s-6.583,2.953-6.583,6.582c0,3.631,2.953,6.584,6.583,6.584   S108.539,140.498,108.539,136.867z M101.956,138.785c-1.057,0-1.917-0.86-1.917-1.918c0-1.057,0.86-1.916,1.917-1.916   c1.057,0,1.917,0.859,1.917,1.916C103.873,137.925,103.013,138.785,101.956,138.785z" fill="#000000"/>
	<path d="M76.956,130.285c-3.63,0-6.583,2.953-6.583,6.582c0,3.631,2.953,6.584,6.583,6.584s6.583-2.953,6.583-6.584   C83.539,133.238,80.586,130.285,76.956,130.285z M76.956,138.785c-1.057,0-1.917-0.86-1.917-1.918c0-1.057,0.86-1.916,1.917-1.916   c1.057,0,1.917,0.859,1.917,1.916C78.873,137.925,78.013,138.785,76.956,138.785z" fill="#000000"/>
	<path d="M111.956,152.951c-3.63,0-6.583,2.953-6.583,6.584c0,3.629,2.953,6.582,6.583,6.582s6.583-2.953,6.583-6.582   C118.539,155.904,115.586,152.951,111.956,152.951z M111.956,161.451c-1.057,0-1.917-0.859-1.917-1.916   c0-1.058,0.86-1.918,1.917-1.918c1.057,0,1.917,0.86,1.917,1.918C113.873,160.592,113.013,161.451,111.956,161.451z" fill="#000000"/>
	<path d="M66.956,152.951c-3.63,0-6.583,2.953-6.583,6.584c0,3.629,2.953,6.582,6.583,6.582c3.63,0,6.583-2.953,6.583-6.582   C73.539,155.904,70.586,152.951,66.956,152.951z M66.956,161.451c-1.057,0-1.917-0.859-1.917-1.916c0-1.058,0.86-1.918,1.917-1.918   c1.057,0,1.917,0.86,1.917,1.918C68.873,160.592,68.013,161.451,66.956,161.451z" fill="#000000"/>
	<path d="M432.876,250.168H402.09c0.459-0.418,0.91-0.849,1.343-1.307c9.45-9.999,9.006-25.824-0.988-35.273l-90.47-85.773   c-14.034-13.825-36.906-22.657-53.84-22.657c-19.317,0-46.364,11.492-59.2,28.78c-0.055,0.054-0.118,0.093-0.171,0.149   l-43.546,46.393l-20.781-19.37c-3.85-29.592-39.831-80.436-41.446-82.703c-0.797-1.12-2.087-1.785-3.462-1.785   s-2.665,0.665-3.462,1.785c-1.706,2.396-41.786,59.024-41.786,87.514c0,14.834,3.851,26.207,11.446,33.802   c7.595,7.596,18.968,11.446,33.802,11.446c10.376,0,19.052-1.891,25.933-5.623l25.396,23.632c4.359,4.078,9.93,6.099,15.494,6.099   c6.049,0,12.091-2.388,16.561-7.116l18.705-19.966v41.973H83.395c-8.96,0-16.25,7.29-16.25,16.25v7.498   c0,8.96,7.29,16.25,16.25,16.25h69.861l38.36,38.361l0.001,121.017l-36.607,36.607c-1.66,1.659-1.66,4.351,0,6.01   c0.829,0.83,1.917,1.245,3.005,1.245c1.088,0,2.176-0.415,3.005-1.245l30.604-30.604c0.144,16.657,13.733,30.164,30.424,30.164   c16.778,0,30.429-13.65,30.429-30.43v-60.588l5.658-5.658l5.659,5.66v60.586c0,16.779,13.651,30.43,30.431,30.43   c16.689,0,30.278-13.506,30.423-30.162l30.603,30.603c0.829,0.83,1.917,1.245,3.005,1.245c1.088,0,2.176-0.415,3.005-1.245   c1.66-1.659,1.66-4.351,0-6.01l-36.605-36.605l-0.001-121.02l38.36-38.36h69.862c8.96,0,16.25-7.29,16.25-16.25v-7.498   C449.126,257.458,441.836,250.168,432.876,250.168z M324.653,208.61l43.501,41.244c0.118,0.111,0.246,0.205,0.366,0.313h-43.867   V208.61z M397.256,243.021c-6.233,6.593-16.668,6.89-23.258,0.66l-49.345-46.783v-42.643c0-0.979-0.054-1.947-0.15-2.907   l72.098,68.411C403.193,225.994,403.487,236.43,397.256,243.021z M52.78,165.922c0-21.233,26.991-63.11,36.748-77.553   c9.756,14.442,36.747,56.319,36.747,77.553c0,25.071-11.677,36.748-36.747,36.748C64.457,202.67,52.78,190.993,52.78,165.922z    M166.722,222.336c-5.368,5.677-14.366,5.961-20.066,0.628l-24.146-22.47c0.274-0.256,0.555-0.506,0.819-0.77   c6.429-6.428,10.163-15.571,11.163-27.22l18.028,17.084c0.818,0.763,1.858,1.141,2.897,1.141c1.133,0,2.264-0.45,3.1-1.342   l33.101-35.17c0,0.013-0.001,0.025-0.001,0.039v41.508L166.722,222.336z M200.116,154.256c0-22.018,35.637-40.598,58.019-40.598   c22.382,0,58.019,18.579,58.019,40.598v95.912H200.116V154.256z M165.274,290.166h26.342v26.342L165.274,290.166z M316.153,290.166   v34.842l-43.859,43.859v-41.477c0-1.258-0.557-2.45-1.521-3.258c-0.964-0.808-2.233-1.148-3.474-0.927   c-3.238,0.576-6.321,0.868-9.163,0.868c-2.843,0-5.927-0.292-9.166-0.868c-1.242-0.221-2.511,0.12-3.474,0.927   c-0.964,0.808-1.52,2-1.52,3.258v41.478l-43.86-43.86v-34.842H316.153z M258.135,383.026l-5.658-5.658v-45.092   c3.896,0.396,7.422,0.396,11.317,0v45.091L258.135,383.026z M200.116,337.027l43.86,43.859v16.298l-43.859,43.859L200.116,337.027z    M243.977,461.291c0,12.092-9.837,21.93-21.929,21.93c-12.093,0-21.931-9.838-21.931-21.93v-8.227l43.859-43.86V461.291z    M316.154,461.291c0,12.092-9.838,21.93-21.93,21.93c-0.83,0-1.648-0.051-2.454-0.141v-26.17c0-2.348-1.902-4.25-4.25-4.25   c-2.348,0-4.25,1.902-4.25,4.25v23.367c-6.555-3.797-10.977-10.883-10.977-18.986v-52.086l43.86,43.86V461.291z M316.154,441.046   l-43.86-43.86v-16.299l43.859-43.86L316.154,441.046z M324.653,316.508v-26.342h26.342L324.653,316.508z M432.876,281.666H83.395   c-4.273,0-7.75-3.477-7.75-7.75v-7.498c0-4.273,3.477-7.75,7.75-7.75h349.482c3.847,0,7.039,2.82,7.64,6.5h-74.999   c-2.348,0-4.25,1.902-4.25,4.25c0,2.348,1.902,4.25,4.25,4.25h75.109v0.248C440.626,278.189,437.149,281.666,432.876,281.666z" fill="#000000"/>
	<path d="M220.024,151.174c-2.348,0-4.25,1.902-4.25,4.25v67.498c0,2.348,1.902,4.25,4.25,4.25c2.348,0,4.25-1.902,4.25-4.25   v-67.498C224.274,153.076,222.372,151.174,220.024,151.174z" fill="#000000"/>
</g>
<g>
</g>
<g>
</g>
<g>
</g>
<g>
</g>
<g>
</g>
<g>
</g>
<g>
</g>
<g>
</g>
<g>
</g>
<g>
</g>
<g>
</g>
<g>
</g>
<g>
</g>
<g>
</g>
<g>
</g>
</svg>
